<svg width="154" height="138" viewBox="0 0 154 138" fill="none" xmlns="http://www.w3.org/2000/svg">
<g clip-path="url(#clip0_2_3)">
<path d="M30.8385 89.2109C29.3365 88.2704 29.4777 86.7646 29.4777 85.2589V74.4365H29.5719L35.2986 96.3633H39.2409L44.6852 74.4365H44.7793V85.2589C44.7793 86.7646 44.9205 88.2704 43.4185 89.2109V96.3633H58.1092V89.2109C56.6072 88.2704 56.7484 86.7646 56.7484 85.2589V67.1436C56.7484 65.6379 56.6072 64.1321 58.1092 63.1916V56.0392H42.7146L38.4899 72.5554H38.3957L34.2652 56.0392H18.4479V63.1916C19.95 64.1321 19.8087 65.6379 19.8087 67.1436V85.2589C19.8087 86.7646 19.95 88.2704 18.4479 89.2109V96.3633H30.8396V89.2109H30.8385ZM53.1434 59.1572H54.0531L54.5074 59.9474L54.0531 60.7376H53.1434L52.6879 59.9474L53.1434 59.1572ZM52.3212 91.6518H53.2309L53.6864 92.442L53.2309 93.2322H52.3212L51.8658 92.442L52.3212 91.6518ZM48.7555 91.6518L49.2109 92.442L48.7555 93.2322H47.8458L47.3903 92.442L47.8458 91.6518H48.7555ZM46.2518 59.1572H47.1615L47.617 59.9474L47.1615 60.7376H46.2518L45.7964 59.9474L46.2518 59.1572ZM22.9069 93.2322H21.9972L21.5418 92.442L21.9972 91.6518H22.9069L23.3624 92.442L22.9069 93.2322ZM23.6558 60.7376H22.746L22.2906 59.9474L22.746 59.1572H23.6558L24.1101 59.9474L23.6558 60.7376ZM27.3813 93.2322H26.4715L26.0161 92.442L26.4715 91.6518H27.3813L27.8367 92.442L27.3813 93.2322ZM29.6365 59.1572H30.5462L31.0017 59.9474L30.5462 60.7376H29.6365L29.1811 59.9474L29.6365 59.1572Z" fill="white"/>
<path d="M116.825 80.0347C120.299 80.882 122.88 81.2112 122.88 85.3521C122.88 86.8106 122.129 88.458 120.44 88.458C119.502 88.458 118.609 87.9399 118.187 87.141C117.764 86.2937 117.811 84.5059 117.811 82.1057H105.561V92.9281C109.644 96.1744 115.042 97.1633 120.159 97.1633C132.128 97.1633 135.553 91.4223 135.553 83.6586V83.4709C135.553 81.5887 135.272 79.6593 134.615 77.9187C134.052 76.2253 132.972 75.0488 131.517 74.0599C128.982 72.3665 124.946 71.2833 121.942 70.4843C120.91 70.2022 119.126 69.637 118.422 68.8842C117.765 68.2257 117.671 67.4256 117.671 66.6255C117.671 65.1198 118.516 63.9432 120.111 63.9432C122.552 63.9432 122.599 66.4367 122.599 68.2246V68.9774H134.285V59.472C129.732 56.32 124.898 55.2379 119.453 55.2379C115.698 55.2379 111.803 55.7087 109.128 57.7314C105.842 60.2249 105.138 62.3903 104.95 66.7188V67.6133C104.95 76.3186 109.221 78.1536 116.825 80.0358V80.0347ZM109.752 86.3793H108.842L108.386 85.5891L108.842 84.7989H109.752L110.207 85.5891L109.752 86.3793ZM114.227 86.3793H113.317L112.862 85.5891L113.317 84.7989H114.227L114.682 85.5891L114.227 86.3793ZM130.501 64.7345H131.411L131.866 65.5247L131.411 66.3149H130.501L130.045 65.5247L130.501 64.7345ZM126.025 64.7345H126.935L127.391 65.5247L126.935 66.3149H126.025L125.57 65.5247L126.025 64.7345Z" fill="white"/>
<path d="M87.4425 21.9169L81.3687 19.6342C82.5817 20.4968 84.9037 21.8698 87.4425 21.9169Z" fill="white"/>
<path d="M92.9732 17.7355C92.9491 17.7059 92.9229 17.6762 92.8933 17.6477C92.8659 17.6181 92.8353 17.5906 92.8035 17.5632C92.6776 17.4545 92.5375 17.3536 92.3886 17.2636C92.093 17.0803 91.7734 16.9245 91.4482 16.7807C90.7924 16.5019 90.1181 16.2363 89.4514 15.9685C88.1135 15.4352 86.7724 14.9073 85.4303 14.3827H85.427L85.4204 14.3783C85.3449 14.3443 85.2431 14.3135 85.15 14.2949C85.0548 14.2751 84.9562 14.2652 84.8588 14.2641C84.6639 14.2619 84.4691 14.2971 84.2873 14.3695C84.1056 14.4408 83.937 14.5495 83.787 14.6801C83.6414 14.8107 83.4991 14.9731 83.3524 15.1257L81.6041 16.9706L78.2125 20.5495C78.9525 20.7064 79.6816 20.893 80.4064 21.1004C81.1804 21.3243 81.9467 21.5723 82.701 21.8588C83.394 22.1222 84.0771 22.4163 84.7362 22.7576L84.7406 22.7554L84.7428 22.7609C84.7975 22.7895 84.8533 22.8158 84.9081 22.8454C85.0274 22.9091 85.1467 22.9749 85.2639 23.043H85.2671L85.2693 23.0463C85.5003 23.1791 85.7269 23.3185 85.947 23.4688C86.27 23.6883 86.5809 23.9276 86.8677 24.1943L88.2033 22.8663L90.5669 20.4101L90.8231 20.1434L93.0422 17.8376C93.0422 17.8376 93.0378 17.8288 93.0345 17.8233C93.0192 17.7948 92.9973 17.764 92.9732 17.7355ZM88.2986 22.0552C88.0566 22.0794 87.8169 22.0915 87.5782 22.0915C83.718 22.0915 80.3702 19.0745 80.3702 19.0745L84.5632 14.7953L92.2627 17.8518L88.2986 22.0552Z" fill="white"/>
<path d="M80.6779 19.0064L88.2099 21.8369L87.9887 21.298L81.0446 18.6311L80.6779 19.0064Z" fill="white"/>
<path d="M84.9376 24.608L84.1341 22.5875C84.0279 22.5392 83.9228 22.4898 83.8155 22.4437L84.3946 24.563C84.5752 24.5838 84.7559 24.5992 84.9365 24.608H84.9376Z" fill="white"/>
<path d="M90.5855 39.7282L84.0552 42.7913L91.9223 40.8224C91.9376 40.7379 91.9529 40.6533 91.9693 40.5688C91.4285 40.7291 90.8778 40.8322 90.3294 40.8761C90.9501 40.672 91.5347 40.3921 92.0711 40.0519C92.0777 40.0168 92.0854 39.9806 92.0919 39.9455C91.3475 40.2374 90.5833 40.458 89.8104 40.604C90.6589 40.2824 91.4646 39.8697 92.2102 39.3825C92.2682 39.118 92.3317 38.8535 92.3985 38.5912C91.9726 38.7481 91.538 38.8699 91.1012 38.9555C91.6179 38.7031 92.0996 38.3969 92.5419 38.0534C92.5474 38.0347 92.5528 38.0172 92.5572 37.9985C91.8095 38.4134 91.0344 38.7657 90.2396 39.0532C91.1428 38.5527 91.9879 37.9678 92.7652 37.3115C92.8079 37.1798 92.8517 37.0492 92.8977 36.9186L82.4492 42.7968L90.5844 39.7282H90.5855Z" fill="white"/>
<path d="M88.2526 21.8522L91.9638 17.9177L91.5511 17.7542L88.1234 21.2738L88.2526 21.8522Z" fill="white"/>
<path d="M88.3905 28.8817C89.5959 26.5901 90.302 24.0582 90.4673 21.5065L87.3647 24.7299L87.3166 24.7792L87.2596 24.8187C85.832 25.8054 84.457 26.3816 83.9994 26.5605C83.4641 27.1048 81.2395 29.1758 78.4161 29.1758C77.2316 29.1758 76.0974 28.8092 75.0453 28.0871C74.892 27.9817 74.7453 27.8709 74.6019 27.7545C74.4563 28.1409 74.2187 28.5239 73.8509 28.8762L73.6101 29.1078L73.2794 29.0606L73.0003 29.0211L77.1133 41.3492L77.3213 30.0022L78.2409 40.0223L80.4469 30.461L78.8463 40.5447L84.411 27.3276L80.5596 39.5241L84.7548 33.8237L81.0129 40.0278L87.3089 33.8994L81.3336 41.2987L86.1846 37.835L81.7245 41.7882L92.9108 36.8879C92.9579 36.7562 93.0039 36.6245 93.0542 36.4939C93.1823 36.1646 93.3225 35.8365 93.4549 35.5061C92.994 35.9265 92.4937 36.2898 91.9682 36.5872C92.4379 36.0889 92.8331 35.5391 93.1506 34.9607C92.5988 35.3558 92.0219 35.7059 91.4274 36.0055C92.1116 35.3887 92.7192 34.705 93.2414 33.9773C92.624 34.3154 91.9496 34.5228 91.2752 34.5842C92.3897 34.2572 93.34 33.5361 93.9366 32.634C93.9279 32.5956 93.9191 32.5572 93.9093 32.5199C93.2601 32.9731 92.5244 33.2585 91.7865 33.3616C92.4466 33.0796 93.0192 32.6505 93.4615 32.1379C92.5364 32.7734 91.5139 33.2135 90.4739 33.4451C91.4471 32.9161 92.2846 32.2027 92.9382 31.3829C92.4116 31.5157 91.8861 31.6605 91.3606 31.8186C91.873 31.3423 92.4039 30.8802 92.9513 30.4302C93.1626 29.8134 93.2272 29.1571 93.213 28.4888C92.3536 29.6016 91.2709 30.5202 90.0633 31.1743C91.3519 30.281 92.4061 29.0869 93.1232 27.737L93.1692 27.7655C93.1232 27.2804 93.0477 26.7942 92.9667 26.319C92.2879 27.4977 91.3563 28.5107 90.2626 29.2658C91.434 28.2649 92.3207 26.9676 92.832 25.5574C92.7718 25.2259 92.7061 24.8956 92.6284 24.5685C92.2485 25.0821 91.7876 25.52 91.272 25.8592C91.8139 25.3192 92.2211 24.6706 92.4718 23.9836C92.3755 23.6598 92.2605 23.3426 92.1204 23.0353L91.3354 24.1998L91.8719 22.5524C91.6168 22.1068 91.3081 21.6986 90.9687 21.3112C90.6644 24 89.7743 26.6022 88.3894 28.8839L88.3905 28.8817Z" fill="white"/>
<path d="M85.2967 24.6156C85.5682 24.6113 85.8408 24.5893 86.1079 24.5344C86.1889 24.518 86.2678 24.4971 86.3477 24.4741L85.7499 23.4523C85.6131 23.3645 85.4752 23.28 85.3339 23.1988L85.8988 24.5674L85.1522 23.0967C85.0559 23.0429 84.9584 22.9914 84.861 22.9409C84.838 22.9288 84.815 22.9178 84.792 22.9068L85.3493 24.6102L84.6333 22.8278C84.5205 22.7719 84.4088 22.7148 84.295 22.661L84.9409 24.6102C85.0602 24.6156 85.1796 24.6189 85.2989 24.6178L85.2967 24.6156Z" fill="white"/>
<path d="M83.6764 24.4477C83.914 24.496 84.1538 24.5344 84.3946 24.563L83.614 22.3581C83.2977 22.2253 82.9791 22.098 82.6572 21.9795C82.5401 21.9367 82.4218 21.895 82.3036 21.8544L82.7043 24.2041C83.0251 24.2985 83.3491 24.3808 83.6764 24.4477Z" fill="white"/>
<path d="M80.2892 23.178L80.0692 21.1674C79.9115 21.1245 79.7539 21.0839 79.5962 21.0433L79.6214 22.7434C79.836 22.8992 80.0604 23.0441 80.2903 23.178H80.2892Z" fill="white"/>
<path d="M82.0606 23.9956L81.5953 21.6162C81.3774 21.546 81.1596 21.478 80.9406 21.4132L81.0632 23.583C81.3884 23.7366 81.7212 23.8738 82.0606 23.9967V23.9956Z" fill="white"/>
<path d="M79.0773 20.916L79.0521 22.2736C79.12 22.3395 79.1901 22.4042 79.2634 22.4646C79.3751 22.5601 79.4911 22.6501 79.6105 22.7368L79.4287 21.0016C79.3116 20.972 79.1945 20.9435 79.0773 20.916Z" fill="white"/>
<path d="M80.6144 23.3602C80.7611 23.437 80.91 23.5106 81.0599 23.5808L80.7665 21.3628C80.633 21.3243 80.4994 21.2848 80.3659 21.2475C80.3232 21.2355 80.2805 21.2245 80.2389 21.2135L80.2925 23.1802C80.3987 23.2417 80.506 23.302 80.6144 23.3602Z" fill="white"/>
<path d="M66.6112 25.4355C66.8685 26.1116 67.0798 26.8052 67.2473 27.5087L69.1117 27.7732C70.2425 26.5077 69.6065 25.1084 69.4488 24.8088L68.5402 24.6804C68.3377 24.8857 68.1012 25.0525 67.8483 25.1688C67.4837 25.3367 67.0677 25.4256 66.6101 25.4355H66.6112Z" fill="white"/>
<path d="M58.0786 21.5087C57.9122 21.6832 57.7512 21.8654 57.5947 22.0497C58.1782 22.559 58.7256 23.1143 59.2259 23.7069L59.9441 23.1384C59.4284 22.4821 58.8164 21.9477 58.0797 21.5098L58.0786 21.5087Z" fill="white"/>
<path d="M58.6161 20.9654C58.5515 21.0335 58.4902 21.0982 58.4333 21.152C58.3982 21.186 58.3643 21.2222 58.3293 21.2562C59.0704 21.7084 59.689 22.2561 60.2134 22.9233L60.9436 22.345C60.2999 21.7238 59.5696 21.2058 58.7716 20.8041C58.719 20.8568 58.6665 20.9116 58.6161 20.9643V20.9654Z" fill="white"/>
<path d="M59.8455 20.634L59.7579 20.5857C59.493 20.4387 59.3945 20.3838 59.181 20.4815C59.1383 20.5012 59.0934 20.5287 59.0485 20.5605C59.8444 20.9764 60.5725 21.5032 61.2162 22.131L61.3541 22.0213C61.4001 21.985 61.4264 21.9598 61.4308 21.9466C61.4297 21.9422 61.4209 21.9203 61.3716 21.8643C60.9403 21.3661 60.4269 20.9534 59.8455 20.6351V20.634Z" fill="white"/>
<path d="M56.1912 24.0055C56.12 24.1229 56.0653 24.2206 56.0379 24.2843L57.1152 25.2863C57.1261 25.2961 57.1524 25.3214 57.1677 25.3302C57.1852 25.3225 57.217 25.2972 57.229 25.2874L57.3998 25.1524C56.9269 24.8528 56.5153 24.462 56.1912 24.0044V24.0055Z" fill="white"/>
<path d="M58.0337 30.2261C58.0621 30.2261 58.0906 30.225 58.1202 30.2228C58.1519 30.2206 58.1848 30.2184 58.2165 30.2151C58.245 30.2129 58.2723 30.2096 58.3008 30.2063C58.3326 30.2019 58.3643 30.1975 58.3961 30.192C58.4234 30.1877 58.4508 30.1822 58.4771 30.1767C58.5088 30.1701 58.5395 30.1635 58.5701 30.1558C58.7508 30.1097 58.9194 30.0395 59.0671 29.944C59.0693 29.4029 58.9566 28.8432 58.7212 28.3197C59.089 28.7609 59.3704 29.2954 59.5324 29.8814C59.5631 29.91 59.5948 29.9385 59.6266 29.9671C59.8663 30.0856 60.1345 30.1481 60.4006 30.1481C60.9414 30.1481 61.4724 29.8968 61.7307 29.3645C61.8621 29.5105 62.0066 29.6532 62.1621 29.7772L62.1752 29.7662C62.1796 29.7772 62.1861 29.7882 62.1916 29.7991C62.4533 30.0022 62.7467 30.1525 63.0729 30.1822C63.1014 30.1844 63.1309 30.1866 63.1605 30.1866C63.6706 30.1866 64.2016 29.7904 64.1666 29.2822C64.5881 29.5292 65.1234 29.7311 65.5996 29.7311C65.9554 29.7311 66.2784 29.6181 66.4984 29.325C66.7502 28.9903 66.748 28.5469 66.678 28.1222C66.6616 28.0212 66.6408 27.9224 66.6189 27.8258C66.5871 27.6843 66.5521 27.5438 66.516 27.4033C66.436 27.0916 66.3463 26.7832 66.2477 26.477C66.1996 26.3267 66.1492 26.1774 66.0967 26.0292C66.0912 26.0139 66.0857 25.9974 66.0802 25.9821C66.0343 25.8515 65.985 25.7219 65.9357 25.5935C65.9248 25.565 65.9138 25.5376 65.9029 25.509C65.8569 25.3916 65.8087 25.2742 65.7595 25.1578C65.7452 25.1249 65.7321 25.092 65.7179 25.0591C65.6566 24.9175 65.5942 24.7759 65.5296 24.6365C65.5296 24.6343 65.5274 24.6321 65.5263 24.6299C65.8536 24.6969 66.1941 24.7463 66.528 24.7463C66.6451 24.7463 66.7612 24.7397 66.8761 24.7265C66.9922 24.7134 67.106 24.6925 67.2177 24.6629C67.2254 24.6607 67.2341 24.6585 67.2418 24.6563C67.2856 24.6442 67.3294 24.631 67.3732 24.6157C67.3863 24.6113 67.3983 24.6069 67.4115 24.6025C67.4629 24.5838 67.5133 24.5641 67.5637 24.541C67.6009 24.5235 67.637 24.5048 67.6731 24.4851C67.6852 24.4785 67.6972 24.4708 67.7092 24.4631C67.7322 24.4489 67.7552 24.4357 67.7782 24.4203C67.7925 24.4104 67.8067 24.4006 67.8209 24.3907C67.8406 24.3764 67.8603 24.3632 67.8789 24.3479C67.8932 24.3369 67.9085 24.3248 67.9227 24.3128C67.9402 24.2985 67.9567 24.2831 67.9742 24.2689C67.9884 24.2557 68.0026 24.2425 68.0169 24.2283C68.0322 24.2129 68.0475 24.1975 68.0629 24.1822C68.0771 24.1679 68.0913 24.1525 68.1045 24.1383C68.1187 24.1229 68.1318 24.1064 68.145 24.0911C68.1581 24.0757 68.1712 24.0592 68.1844 24.0428C68.1975 24.0263 68.2085 24.0088 68.2205 23.9923C68.2326 23.9758 68.2446 23.9594 68.2555 23.9429C68.4701 23.617 68.561 23.2251 68.4362 22.8575C66.667 22.4898 65.3073 21.1202 64.0057 19.8646C62.7029 18.6102 61.1899 17.3415 59.3846 17.2734C59.1613 17.2647 58.9215 17.2712 58.7365 17.145C58.5625 17.0265 58.4771 16.8191 58.3774 16.6325C57.9144 15.7611 56.9236 15.2398 55.946 15.2398C55.5497 15.2398 55.1555 15.3254 54.8008 15.5076C54.7034 14.8085 54.0783 14.2894 53.393 14.0984C53.1379 14.2213 52.8927 14.364 52.6573 14.5242C52.0059 15.0005 51.4465 15.6052 50.9998 16.2813C50.3966 17.1922 49.9849 18.2315 49.7824 19.3082C49.5788 20.387 49.5722 21.4999 49.7102 22.5908C49.8382 23.6115 50.0922 24.6157 50.4283 25.5881C50.6955 25.6857 50.9746 25.7406 51.2483 25.7406C51.4421 25.7406 51.6326 25.7132 51.8154 25.6561C51.4651 22.9694 51.9413 20.2169 53.1346 17.8595C52.1953 20.1642 51.9424 22.7104 52.3672 25.103C52.5653 23.6323 53.2189 22.2473 54.2118 21.2003C53.07 22.6479 52.5741 24.5399 52.8138 26.297C52.8543 26.3519 52.8937 26.4079 52.9343 26.4617C53.5583 27.2639 54.3224 27.8522 55.1566 28.5754C55.6909 29.0397 56.1616 29.5884 56.7769 29.9374C57.0867 30.113 57.5104 30.2173 57.9352 30.2239C57.9691 30.2239 58.003 30.2239 58.037 30.2239L58.0337 30.2261ZM63.4922 26.3958C63.6367 26.6109 63.7604 26.8403 63.8655 27.0774C63.9706 27.3144 64.0549 27.5602 64.1162 27.8127C64.1753 28.0651 64.2169 28.323 64.2126 28.5886C64.0779 28.3603 63.9695 28.1309 63.8611 27.9027C63.7549 27.6744 63.652 27.4461 63.5513 27.2167C63.4506 26.9874 63.3521 26.758 63.2557 26.5242C63.1616 26.2894 63.0641 26.0545 62.9875 25.8021C63.1857 25.9777 63.3477 26.1818 63.4933 26.3969L63.4922 26.3958ZM61.6431 28.5787C61.5205 28.4591 61.4253 28.334 61.3366 28.2078C61.2479 28.0816 61.168 27.9532 61.0925 27.8215C61.0169 27.6898 60.948 27.5559 60.8834 27.4154C60.8199 27.2738 60.7597 27.1289 60.7192 26.9632C60.8713 27.0411 60.995 27.1476 61.1067 27.2639C61.2162 27.3814 61.3114 27.512 61.3913 27.6502C61.4713 27.7885 61.5348 27.9367 61.5807 28.0914C61.6256 28.2462 61.6541 28.4075 61.6431 28.5787ZM57.1677 25.6759C57.1612 25.6759 57.1546 25.6759 57.1469 25.6759C57.021 25.6682 56.9334 25.587 56.882 25.5387L55.7391 24.4741C55.6405 24.3797 55.5059 24.2513 56.7977 22.4997C57.2181 21.9301 57.6877 21.3934 58.1957 20.9039C58.2494 20.8524 58.3074 20.7909 58.3687 20.7273C58.5701 20.5165 58.7989 20.2773 59.0387 20.1675C59.4109 19.9985 59.6375 20.1247 59.9254 20.285L60.0108 20.3322C60.6283 20.6691 61.1735 21.1092 61.6322 21.6382C61.6836 21.6985 61.792 21.8226 61.7734 21.9872C61.7559 22.1441 61.6344 22.2407 61.5687 22.2934L57.4436 25.5606C57.3911 25.6023 57.2947 25.6791 57.1677 25.6791V25.6759Z" fill="white"/>
<path d="M56.7298 23.1879C56.616 23.3514 56.4988 23.5248 56.3926 23.6872C56.7232 24.1932 57.1677 24.6179 57.6877 24.9252L58.1016 24.597C57.6012 24.1723 57.1404 23.7004 56.7287 23.1879H56.7298Z" fill="white"/>
<path d="M57.3746 22.3142C57.2717 22.4426 57.171 22.5732 57.0736 22.7049C57.032 22.7609 56.986 22.8245 56.9367 22.8937C57.3637 23.4369 57.8476 23.9352 58.3774 24.3786L58.9566 23.9198C58.4716 23.3459 57.9406 22.807 57.3746 22.3142Z" fill="white"/>
<path d="M90.7574 43.339L83.995 44.7635L91.1701 44.7548C91.353 43.9635 91.5019 43.1634 91.6453 42.3633C91.376 42.4731 91.1034 42.5784 90.8253 42.6673C90.3567 42.8177 89.8685 42.9208 89.3835 42.9274C89.8608 42.8352 90.3053 42.652 90.7268 42.4292C91.076 42.2448 91.4099 42.0319 91.7449 41.8135C91.7657 41.6938 91.7876 41.5753 91.8095 41.4557L83.7378 44.1687L90.7596 43.339H90.7574Z" fill="white"/>
<path d="M72.2788 28.2231L72.2197 28.0388C72.2197 28.0388 72.1978 27.6909 72.5744 27.7479L72.755 28.2901L73.3747 28.3779C73.7502 28.0179 73.9494 27.6283 74.0414 27.2541C74.0742 27.1213 74.0928 26.9907 74.1016 26.8644C74.1016 26.8611 74.1016 26.8568 74.1016 26.8535C74.1038 26.8151 74.106 26.7777 74.106 26.7404C74.106 26.7349 74.106 26.7294 74.106 26.724C74.106 26.6877 74.106 26.6526 74.106 26.6175C74.106 26.6131 74.106 26.6087 74.106 26.6032C74.1049 26.5681 74.1027 26.5319 74.1005 26.4979C74.1005 26.4946 74.1005 26.4913 74.1005 26.4869C74.0972 26.4507 74.0939 26.4156 74.0896 26.3815C74.0896 26.3793 74.0896 26.3772 74.0896 26.3761C74.0852 26.3398 74.0797 26.3036 74.0742 26.2685C73.9943 25.7713 73.8049 25.4267 73.8049 25.4267L70.2513 24.923C70.5206 25.6824 70.6257 26.8293 69.8999 27.8851L72.281 28.2231H72.2788Z" fill="white"/>
<path d="M68.0519 28.3197C68.5522 29.0605 69.0766 29.7903 69.6273 30.5048C69.0383 30.09 68.4592 29.6575 67.8888 29.2109L68.4274 30.2579L67.5023 29.651C67.5571 29.8705 67.6052 30.09 67.6436 30.3084C67.4071 30.1635 67.1662 30.0318 66.9243 29.9122L66.8816 30.5564L66.2499 30.3204C66.0518 30.3874 65.835 30.4225 65.6007 30.4225C65.2219 30.4225 64.8552 30.3325 64.541 30.2184C64.5147 30.2513 64.4863 30.2842 64.4578 30.316C64.1337 30.6639 63.6575 30.8714 63.1802 30.8769L63.8776 31.5343L62.6558 31.0788C62.4522 31.002 62.2507 30.9317 62.0329 30.8352C61.9781 30.8099 61.9223 30.7836 61.8654 30.755C62.3372 31.2017 62.8299 31.6341 63.3455 32.0446C62.508 31.7571 61.6793 31.4179 60.8648 31.0283C61.5534 31.5749 62.277 32.0852 63.0357 32.5516C62.0274 32.2158 61.0355 31.8042 60.0689 31.3224C60.8571 31.9634 61.7395 32.5132 62.6941 32.9402C61.6869 32.7393 60.6918 32.4024 59.7426 31.9381C60.302 32.3815 60.9096 32.7722 61.5599 33.0949C60.486 32.7689 59.4503 32.2641 58.5088 31.5968C58.5066 31.633 58.5044 31.6703 58.5011 31.7066C59.008 32.4518 59.6988 33.1026 60.5232 33.5745C59.8751 33.3802 59.2489 33.074 58.6763 32.6691C59.204 33.3989 59.9298 34.0168 60.7837 34.4262C60.0075 34.2319 59.2576 33.8631 58.603 33.3462C58.9708 33.8796 59.4503 34.3592 60.0185 34.7411C59.4448 34.5644 58.8876 34.2879 58.3785 33.9191C58.3774 33.9509 58.3753 33.9828 58.3742 34.0135C58.7146 34.346 59.0715 34.6665 59.4459 34.9716C59.077 34.8641 58.7092 34.7422 58.3446 34.6072C58.3413 34.6786 58.3369 34.7488 58.3337 34.8202L72.9652 42.1887L64.8957 35.7377L73.194 41.3722L64.7435 31.3049L74.2954 40.8311L70.3465 34.458L74.7464 40.3998L70.1561 29.5478L76.4575 41.179L72.5164 28.9562L68.053 28.3219L68.0519 28.3197Z" fill="white"/>
<path d="M49.72 17.572C49.9817 17.0177 50.2805 16.4778 50.6341 15.9718C51.1553 15.2146 51.8055 14.5209 52.5828 13.9952C52.5741 13.9952 52.5664 13.9952 52.5576 13.9952C50.6823 13.9952 49.3511 15.5943 48.7555 17.3404C48.3384 18.5641 48.2508 19.8767 48.2694 21.1696C48.287 22.3746 48.4183 23.6477 49.1256 24.6223C49.3719 24.9625 49.7102 25.2457 50.0868 25.4432C49.893 25.2259 49.7288 24.9812 49.5952 24.7221C49.3128 24.1789 49.1693 23.5742 49.0938 22.9705C49.0194 22.3636 49.0084 21.7556 48.9942 21.1498C48.9843 20.5429 48.9964 19.9272 49.1135 19.317C49.2296 18.7057 49.4595 18.1251 49.7189 17.5731L49.72 17.572Z" fill="white"/>
<path d="M50.4218 25.5891C50.0725 24.6211 49.8065 23.6202 49.6642 22.5985C49.512 21.5054 49.5043 20.387 49.6948 19.295C49.8558 18.3775 50.1667 17.4852 50.6188 16.6687C50.3977 17.0045 50.194 17.3546 50.009 17.7135C49.7353 18.2447 49.4967 18.7924 49.3664 19.3685C49.235 19.9458 49.1989 20.5461 49.1879 21.1487C49.1803 21.7523 49.1704 22.357 49.223 22.9551C49.2755 23.5522 49.396 24.1492 49.6543 24.6925C49.7868 24.9745 49.9576 25.2434 50.1645 25.4805C50.2488 25.5211 50.3342 25.5573 50.4218 25.5891Z" fill="white"/>
<path d="M58.326 34.9431C58.3227 35.0046 58.3205 35.0671 58.3183 35.1286C58.6008 35.5314 58.9741 35.8903 59.389 36.2096C59.8258 36.5466 60.3064 36.844 60.7859 37.1381C60.2561 36.9471 59.7262 36.754 59.2095 36.5027C59.0026 36.4017 58.7978 36.2908 58.5975 36.1668C58.6665 36.248 58.7431 36.3292 58.8241 36.4105C59.0266 36.6168 59.2368 36.8165 59.4558 37.0086C59.8915 37.3938 60.359 37.7494 60.8505 38.0743C60.3053 37.8515 59.7711 37.5892 59.2554 37.2885C59.0956 37.1952 58.9369 37.0964 58.7803 36.9954C58.9982 37.2874 59.2489 37.5639 59.5204 37.824C59.9857 38.2707 60.5057 38.6735 61.0268 39.073C60.4444 38.7701 59.8619 38.465 59.3058 38.0929C59.1536 37.9909 59.0036 37.8833 58.8559 37.7692C59.3616 38.5056 60.0097 39.1619 60.7706 39.6832C60.0951 39.3781 59.458 38.9665 58.8865 38.4661C59.2817 39.1838 59.8017 39.8544 60.4356 40.4328C59.9375 40.1913 59.4591 39.8917 59.0113 39.5416C59.6518 40.4284 60.4805 41.2109 61.4537 41.8068C60.4553 41.4633 59.5018 40.9256 58.661 40.2199C59.0978 40.9793 59.7295 41.6631 60.5111 42.1734C59.7087 41.9221 58.9412 41.4864 58.2778 40.8948C59.1547 42.0713 60.5451 42.9504 62.1128 43.1974C60.8888 43.2424 59.6222 42.8978 58.5263 42.2118C58.9259 42.6256 59.4021 42.9856 59.9386 43.2632C59.1558 43.148 58.372 42.8571 57.6615 42.4006C57.8925 42.7298 58.211 43.0327 58.6052 43.2643C58.3238 43.3093 58.026 43.3159 57.7217 43.2852C57.7764 43.3181 57.8311 43.3499 57.887 43.3817L72.8995 44.5363L63.9038 41.5423L73.1185 43.7812L58.3271 34.942L58.326 34.9431Z" fill="white"/>
<path d="M86.8294 24.2733C86.5393 24.0055 86.2229 23.7673 85.8945 23.5478C85.8912 23.5457 85.8879 23.5435 85.8857 23.5424L86.3477 24.4752C86.5152 24.4269 86.6783 24.3611 86.8305 24.2733H86.8294Z" fill="white"/>
<path d="M82.701 24.2031L82.1208 21.7886C82.0058 21.7491 81.8909 21.7118 81.7759 21.6744L82.0628 23.9956C82.273 24.0714 82.4864 24.1394 82.701 24.2031Z" fill="white"/>
<path d="M89.7732 14.1916C89.0518 13.88 88.3205 13.5902 87.5837 13.3158C86.8469 13.0437 86.1003 12.7847 85.3536 12.5652H85.3482L85.3372 12.5597L85.0712 12.4697C84.9814 12.4499 84.8916 12.4225 84.8008 12.4071C84.619 12.3764 84.4362 12.361 84.2567 12.3764C84.0771 12.3929 83.902 12.4335 83.7399 12.5048C83.6578 12.5388 83.5812 12.5838 83.5089 12.6332C83.4739 12.6584 83.4378 12.6848 83.406 12.7133C83.3743 12.7397 83.3404 12.7748 83.3217 12.7956L83.3064 12.8132H83.3053L77.5009 18.1657C77.4899 18.9844 77.6333 19.8218 77.9431 20.5889L77.9847 20.545L81.4464 16.8245L83.1772 14.9643C83.3239 14.8117 83.4575 14.6515 83.6261 14.4967C83.7936 14.3486 83.9852 14.2224 84.1965 14.1368C84.4067 14.0501 84.6366 14.0062 84.8643 14.0073C84.9781 14.0073 85.092 14.0182 85.2037 14.0402C85.3175 14.0632 85.4215 14.0896 85.5387 14.1412L85.5288 14.1368C86.8765 14.6493 88.2219 15.164 89.5663 15.6864C90.2385 15.9498 90.9085 16.2044 91.5807 16.4843C91.9157 16.6292 92.2485 16.7872 92.5671 16.9804C92.7269 17.0759 92.8824 17.1845 93.0302 17.3096C93.0674 17.3415 93.1035 17.3733 93.1385 17.4095C93.1747 17.4435 93.2086 17.4808 93.2414 17.5214C93.2502 17.5313 93.2579 17.5434 93.2666 17.5544C93.4024 17.3316 93.6586 16.8882 93.9618 16.2483C93.2885 15.8774 92.6109 15.5141 91.919 15.1783C91.215 14.8293 90.499 14.5044 89.7765 14.1938L89.7732 14.1916ZM84.3158 13.6791C84.2424 13.5189 84.1779 13.3565 84.1155 13.194C84.0848 13.1128 84.0388 13.0349 84.0279 12.9482C84.0147 12.8615 84.0093 12.7726 84.0312 12.676L84.0476 12.6716C84.1165 12.7419 84.1581 12.8209 84.1932 12.901C84.2293 12.9811 84.2315 13.0711 84.2479 13.1567C84.2797 13.3279 84.3103 13.5002 84.3333 13.6747L84.3169 13.6791H84.3158Z" fill="white"/>
<path d="M78.5639 21.7139C78.7073 21.9093 78.866 22.0925 79.0401 22.2616L78.912 20.8787C78.8091 20.8546 78.7062 20.8304 78.6033 20.8085L78.5639 21.715V21.7139Z" fill="white"/>
<path d="M73.0605 24.6256L73.9013 24.7453L74.2417 24.7935L74.4081 25.0954C74.6326 25.5036 74.857 26.2214 74.7793 27.0039C74.984 27.1872 75.2018 27.3595 75.4361 27.5208C76.4586 28.2232 77.4724 28.4888 78.4183 28.4888C80.7567 28.4888 82.6857 26.87 83.3579 26.2302C82.1974 26.2466 81.0424 26.026 79.9871 25.5848C81.1902 25.9865 82.4744 26.1029 83.7104 25.9371C84.0771 25.7956 85.4314 25.2435 86.836 24.2788C86.836 24.2788 86.8338 24.2766 86.8327 24.2755C86.6104 24.4072 86.3641 24.4939 86.1123 24.5488C85.8452 24.607 85.5726 24.6344 85.3 24.6432C84.7537 24.6553 84.2074 24.5993 83.6699 24.5005C82.5959 24.2997 81.5482 23.9474 80.5706 23.4535C80.0834 23.2022 79.6105 22.9168 79.1846 22.5656C78.7522 22.2177 78.3975 21.7798 78.115 21.3035C77.8337 20.825 77.6311 20.3037 77.4954 19.767C77.4319 19.4981 77.3761 19.226 77.3443 18.9505C77.3104 18.6739 77.2907 18.4006 77.2972 18.1164V18.0769L77.3301 18.0472L83.0765 12.5806C83.1159 12.5345 83.1499 12.5016 83.1893 12.4665C83.2309 12.4281 83.2747 12.3952 83.3196 12.3622C83.4093 12.2997 83.5035 12.2426 83.6031 12.1987C83.8012 12.1076 84.0147 12.0549 84.2282 12.0319C84.4428 12.011 84.6563 12.0253 84.8643 12.0571C84.9683 12.0736 85.069 12.101 85.1719 12.123L85.4697 12.2185L85.4533 12.213C86.224 12.427 86.975 12.6739 87.7238 12.9373C88.4715 13.2018 89.2138 13.4828 89.9473 13.7857C90.6808 14.0886 91.4088 14.4047 92.1259 14.746C92.82 15.0687 93.5009 15.4198 94.1775 15.7787C94.958 14.0151 95.9203 11.1407 96.02 7.51789C96.02 7.51789 96.02 7.11621 94.0757 6.65855C92.1313 6.1998 83.5549 2.18736 83.5549 2.18736C83.5549 2.18736 82.5346 1.58374 81.4672 1.58374C80.957 1.58374 80.4359 1.72202 80.0101 2.12919C78.6953 3.39022 75.608 6.9439 74.9216 7.97555C74.5329 8.55941 74.3282 8.84915 74.1607 9.03243C73.9034 10.3121 73.702 11.6148 73.5422 12.9165C73.4557 13.6189 73.3856 14.3224 73.332 15.028C73.2772 15.7337 73.2378 16.4405 73.2236 17.1473C73.1908 18.5609 73.2389 19.9799 73.4491 21.3803C73.5586 22.0783 73.7086 22.772 73.9297 23.4447C74.152 24.1153 74.4454 24.7694 74.8647 25.3434C74.4278 24.7826 74.1125 24.134 73.8684 23.4656C73.6254 22.7961 73.4535 22.1025 73.321 21.4012C73.067 19.9975 72.9751 18.5697 72.9652 17.1451C72.9587 16.4328 72.9773 15.7195 73.0101 15.0083C73.043 14.296 73.0922 13.5848 73.1579 12.8759C73.2608 11.7685 73.3911 10.6677 73.5619 9.56691C73.3736 9.82043 73.1546 10.3044 72.9225 11.2691C72.8984 11.3701 72.8744 11.4755 72.8503 11.5874C72.8503 11.5907 72.8492 11.5929 72.8481 11.5962C72.8371 11.6489 72.8251 11.7026 72.8131 11.7586C72.812 11.7652 72.8098 11.7729 72.8087 11.7795C72.7966 11.8354 72.7857 11.8925 72.7736 11.9507C72.6521 12.5565 72.5284 13.3017 72.4058 14.2236C72.0259 17.0606 71.5847 21.399 73.0627 24.6278L73.0605 24.6256ZM83.556 11.054C83.3677 10.4526 83.1882 9.84897 83.0032 9.24754L82.4678 7.43668C82.2916 6.83196 82.0857 6.23602 81.9489 5.62142C81.8088 5.00682 81.6829 4.39003 81.6128 3.75678L81.6457 3.748C81.8996 4.33187 82.0967 4.93 82.2806 5.53252C82.4667 6.13395 82.5861 6.75403 82.7338 7.36644L83.1696 9.20474C83.3097 9.81934 83.4531 10.4317 83.5889 11.0474L83.556 11.0562V11.054ZM79.3072 3.72385L79.5382 3.45497L79.6543 3.31998C79.6904 3.27717 79.7386 3.2223 79.7824 3.18059C79.9619 3.0039 80.1633 2.85574 80.3823 2.73391C80.4348 2.70099 80.4929 2.67684 80.5487 2.64831C80.6045 2.62087 80.6615 2.59343 80.7206 2.57368C80.7797 2.55173 80.8377 2.52868 80.8968 2.50893L81.0786 2.46064C81.1388 2.44198 81.2012 2.4321 81.2636 2.42332L81.4497 2.39479L81.638 2.3882C81.7004 2.38711 81.7639 2.38052 81.8263 2.3882C82.3299 2.41125 82.8116 2.57917 83.2451 2.80635C83.6611 3.02694 84.0804 3.24315 84.503 3.45387C86.1889 4.30553 87.899 5.10999 89.6298 5.86397C90.4969 6.23821 91.3705 6.5949 92.2562 6.92085C93.1396 7.2523 94.0395 7.54204 94.969 7.72422C94.7358 7.6891 94.4993 7.66056 94.2661 7.61996L93.571 7.46741L92.8835 7.28522C92.6557 7.22047 92.4291 7.14913 92.2014 7.08109C91.2982 6.79135 90.406 6.46649 89.5269 6.112C88.6467 5.75971 87.7775 5.37997 86.9126 4.99036C86.051 4.59526 85.196 4.1848 84.3486 3.76007C83.925 3.54716 83.5057 3.32656 83.0864 3.10157C82.6846 2.88866 82.2533 2.7416 81.8088 2.71196C81.754 2.70318 81.6982 2.70867 81.6424 2.70867L81.476 2.71196L81.3117 2.73391C81.257 2.7405 81.2023 2.74818 81.1486 2.76355L80.9866 2.80306L80.829 2.85793C80.7753 2.87439 80.7249 2.89744 80.6746 2.92159C80.6242 2.94573 80.5717 2.96549 80.5246 2.99512C80.3275 3.09938 80.1425 3.23218 79.9816 3.38363C79.9389 3.42204 79.9083 3.45607 79.8667 3.50216L79.7473 3.63386L79.5087 3.89726C78.2365 5.30205 76.948 6.69148 75.6441 8.06664C76.8484 6.60368 78.0701 5.15499 79.3072 3.72166V3.72385Z" fill="white"/>
<path d="M45.8084 25.7011C45.792 25.6374 45.7767 25.5726 45.7635 25.5079C45.642 24.9405 45.607 24.3654 45.6157 23.7991C45.6321 22.6687 45.8084 21.5624 45.7493 20.4726C45.7296 20.2048 45.6792 19.9414 45.5686 19.7076C45.4614 19.4761 45.2763 19.2796 45.0497 19.1655C44.9359 19.1106 44.8133 19.0766 44.6895 19.0755C44.5658 19.0755 44.4421 19.1084 44.3327 19.1688C44.1104 19.2917 43.955 19.5233 43.8575 19.7724C43.759 20.0237 43.7119 20.2948 43.701 20.5703C43.6867 20.8457 43.6988 21.1223 43.7327 21.3967C43.8028 21.9454 43.9692 22.4832 44.2243 22.9782C43.9495 22.4942 43.7612 21.9586 43.6692 21.4066C43.6243 21.13 43.6013 20.849 43.6046 20.5681C43.6057 20.2871 43.643 19.9996 43.7371 19.7285C43.8323 19.4607 43.9889 19.1918 44.2527 19.0305C44.383 18.9526 44.533 18.9043 44.6874 18.8988C44.8417 18.8933 44.9939 18.9295 45.1329 18.991C45.4088 19.1161 45.6332 19.34 45.7712 19.6078C45.9102 19.8734 45.9748 20.1653 46.0076 20.4495C46.1127 21.5865 45.9759 22.7027 46.0044 23.7991C46.0175 24.3456 46.0722 24.8878 46.2047 25.4058C46.312 25.8295 46.474 26.2355 46.7006 26.5944C46.7707 26.646 46.8408 26.6954 46.9163 26.7393C47.4484 27.0532 48.0636 27.1421 48.6844 27.1421C49.1573 27.1421 49.6346 27.0905 50.0802 27.0455C50.8684 26.9665 51.303 26.7184 51.8274 26.3694C51.6402 26.4111 51.4465 26.4331 51.2472 26.4331C50.2411 26.4331 49.1912 25.881 48.5716 25.0272C47.7341 23.8726 47.6016 22.4338 47.583 21.1783C47.5677 20.1379 47.6049 18.5838 48.1063 17.1165C48.7347 15.2738 50.2356 13.306 52.5598 13.306C52.8127 13.306 53.0733 13.3301 53.3317 13.3795C54.1462 13.532 54.8337 14.0116 55.2048 14.6372C55.4446 14.5823 55.6942 14.5538 55.946 14.5538C57.2236 14.5538 58.4169 15.2441 58.9839 16.312C59.0015 16.3438 59.0179 16.3767 59.0343 16.4097C59.0606 16.4602 59.0967 16.5326 59.123 16.571C59.1744 16.5798 59.2708 16.5831 59.3376 16.5853L59.4098 16.5875C61.4067 16.6632 63.0269 17.9692 64.4819 19.3707L64.645 19.5287C65.8394 20.6822 67.0743 21.8741 68.5752 22.1858L68.9595 22.2659L69.0865 22.6379C69.254 23.1307 69.1927 23.6235 68.989 24.0504L72.269 24.5158C71.888 23.5752 71.622 22.5117 71.4785 21.321C71.1786 18.8329 71.4337 16.2911 71.7227 14.1324C71.8376 13.273 71.9537 12.552 72.0708 11.9462C71.7697 11.9429 71.4665 11.9407 71.1622 11.9407C70.4845 11.9407 69.8035 11.9516 69.1324 11.9912C67.5943 12.0812 66.0551 12.282 64.5147 12.3709C64.5541 12.4477 64.5913 12.5267 64.6231 12.6058C64.7293 12.8713 64.795 13.1446 64.8366 13.4168C64.9176 13.9623 64.9034 14.5 64.8815 15.0279C64.8574 15.5547 64.8333 16.0848 64.7753 16.6116C64.7162 17.1384 64.622 17.663 64.4578 18.1646C64.5804 17.6509 64.6308 17.1263 64.6461 16.6028C64.6614 16.0782 64.6428 15.5536 64.6231 15.0268C64.6034 14.5033 64.5716 13.9809 64.4567 13.4892C64.3625 13.0832 64.2027 12.7001 63.9597 12.3972C63.6761 12.4082 63.3926 12.4148 63.109 12.4148C62.4806 12.4148 61.8533 12.3852 61.2249 12.3094C60.2944 12.1986 59.3671 11.9879 58.4344 11.9879C58.3085 11.9879 58.1815 11.9923 58.0545 11.9999C57.0648 12.0658 56.1167 12.4126 55.1369 12.5717C53.1915 12.8889 51.1312 12.4675 49.2701 13.1205C48.969 13.2258 48.6756 13.3597 48.3647 13.4311C47.9717 13.5222 47.5633 13.5123 47.1626 13.5562C45.3946 13.7493 43.9035 14.961 42.7179 16.2911C42.2176 16.8531 41.7391 17.4677 41.5432 18.1953C41.3439 18.9383 41.4589 19.7241 41.576 20.4847L41.9209 22.74C41.9691 23.0561 42.0227 23.3842 42.2077 23.6454C42.6785 24.3105 43.6835 24.1964 44.4334 24.5103C45.0005 24.7484 45.4022 25.2258 45.8084 25.7022V25.7011Z" fill="white"/>
<path d="M93.0707 17.8108L93.0798 17.8018L93.0733 17.7992C93.0733 17.7992 93.072 17.807 93.0707 17.8108Z" fill="white"/>
<path d="M146.992 39.9049L93.3476 19.7988L94.2935 18.8165L94.3362 18.7726C94.3723 18.7353 94.4052 18.6947 94.4337 18.6508L94.4676 18.6003C94.588 18.4203 97.4114 14.1313 97.5932 7.55954V7.54747C97.5932 7.53978 97.5932 7.5321 97.5932 7.52552V7.51564C97.5932 5.86172 95.3784 5.33931 94.4337 5.11652C93.1429 4.81251 87.53 2.29925 84.2731 0.777026C83.9042 0.572892 82.7536 0 81.4639 0C80.4688 0 79.5886 0.340223 78.9164 0.984452C77.502 2.34095 74.3753 5.93964 73.6057 7.0964C73.0484 7.93378 73.0079 7.96122 72.8996 8.03366C72.304 8.43095 71.8694 9.16078 71.5234 10.3571C71.403 10.3571 71.2815 10.3571 71.16 10.3571C70.3334 10.3571 69.659 10.3735 69.0383 10.4097C68.2424 10.4558 67.4509 10.5316 66.6845 10.604C65.4989 10.7159 64.2739 10.8323 63.1068 10.8323C62.4938 10.8323 61.9387 10.8015 61.41 10.7379C61.1363 10.705 60.8615 10.6633 60.5692 10.6183C59.8893 10.514 59.1876 10.4053 58.4322 10.4053C58.2669 10.4053 58.1038 10.4108 57.9472 10.4207C57.2203 10.469 56.5667 10.6281 55.9339 10.7818C55.565 10.8718 55.2158 10.9563 54.8829 11.0101C54.2097 11.1198 53.4816 11.1253 52.7109 11.1319C51.4268 11.1429 50.0977 11.1538 48.7479 11.6269C48.6329 11.6675 48.5191 11.7103 48.4282 11.7454C48.2683 11.8068 48.1184 11.8639 48.01 11.8892C47.8797 11.9188 47.6881 11.9309 47.4834 11.944C47.3323 11.9539 47.1659 11.9638 46.9918 11.9824C45.0902 12.1899 43.308 13.2544 41.5421 15.2354C40.9487 15.9005 40.305 16.7236 40.0215 17.7816C39.7324 18.8582 39.8912 19.891 40.0182 20.7207L40.3641 22.9771C40.4221 23.3547 40.5185 23.9868 40.9235 24.5575C41.5946 25.5047 42.6106 25.7033 43.2828 25.8339C43.4941 25.8756 43.7119 25.9173 43.8269 25.9656C43.8707 25.9843 43.9177 26.015 43.967 26.0512L7.0098 39.9027C2.81574 41.4765 0 45.546 0 50.0326V101.179C0 103.362 0.648103 105.469 1.87534 107.272C3.10257 109.076 4.82246 110.45 6.84997 111.246L73.0649 137.255C74.3337 137.753 75.666 138.002 76.9995 138.002C78.3329 138.002 79.6652 137.753 80.9341 137.255L147.149 111.246C149.176 110.45 150.896 109.076 152.124 107.272C153.351 105.469 153.999 103.362 153.999 101.179V50.0326C153.999 45.546 151.183 41.4765 146.991 39.906L146.992 39.9049ZM43.4503 24.9603C42.8536 24.844 42.1114 24.6991 41.6461 24.0428C41.3636 23.6433 41.2925 23.1813 41.241 22.8432L40.8962 20.5879C40.7758 19.8021 40.6389 18.9098 40.8798 18.0154C41.1151 17.1374 41.6822 16.4185 42.2055 15.8314C43.8181 14.0216 45.4154 13.0525 47.0882 12.8703C47.2436 12.8538 47.3936 12.844 47.5392 12.8352C47.7812 12.8198 48.0089 12.8056 48.2103 12.7595C48.3789 12.7211 48.5574 12.6519 48.7457 12.5806C48.8409 12.5444 48.9405 12.5059 49.0424 12.4697C50.2532 12.045 51.5067 12.034 52.7186 12.0241C53.5243 12.0176 54.2863 12.011 55.0264 11.8902C55.3931 11.831 55.7577 11.7421 56.143 11.6488C56.7397 11.5039 57.356 11.3547 58.0074 11.3108C58.1454 11.302 58.2877 11.2965 58.4333 11.2965C59.1197 11.2965 59.7886 11.3997 60.4345 11.4984C60.7345 11.5445 61.018 11.5884 61.3049 11.6225C61.8687 11.6894 62.4587 11.7223 63.1079 11.7223C64.3188 11.7223 65.5646 11.6049 66.7699 11.4908C67.5297 11.4194 68.3147 11.3448 69.0919 11.2998C69.6952 11.2647 70.3531 11.2482 71.1622 11.2482C71.5158 11.2482 71.8672 11.2515 72.2142 11.2548C72.5799 9.66014 72.963 9.0642 73.3944 8.77556C73.6287 8.61862 73.6922 8.57692 74.3468 7.59137C75.077 6.49387 78.1785 2.92702 79.5328 1.62868C80.0429 1.1392 80.6932 0.891165 81.465 0.891165C82.6047 0.891165 83.6666 1.45747 83.8691 1.57161C86.2568 2.68776 92.6984 5.62246 94.2311 5.98463C95.9422 6.38851 96.7053 6.86044 96.7053 7.51564V7.5343C96.5301 13.8515 93.8436 17.932 93.7297 18.1021L93.6958 18.1525L93.6531 18.1965L91.2982 20.6439C91.7865 21.1772 92.2288 21.7425 92.5725 22.3922C93.1823 23.5434 93.4079 24.844 93.6082 25.992C93.8414 27.3331 94.1512 29.1143 93.5797 30.7156C94.4468 31.4125 94.7686 32.6362 94.6811 33.6305C94.6635 33.8324 94.6307 34.03 94.5913 34.2232L94.6033 34.2297C94.5979 34.2374 94.5913 34.2451 94.5858 34.2528C94.4435 34.9201 94.1884 35.5401 93.9388 36.1449C93.8534 36.3512 93.7724 36.5466 93.6958 36.7452C93.2108 37.9963 92.9141 39.2914 92.6568 40.6402L98.8204 39.0982L92.5517 41.2054C92.5014 41.482 92.4521 41.7596 92.4018 42.0406C92.243 42.934 92.0788 43.8471 91.8752 44.7547H92.5693L91.8566 44.8381C91.7613 45.2574 91.6573 45.6755 91.5391 46.0893C91.4548 46.3834 91.3409 46.7192 91.0464 46.9826L90.9074 47.0957H89.8411C90.106 47.0825 90.3918 46.6435 90.5899 46.4668C90.7508 46.3241 90.8198 46.1068 90.8789 45.8994C90.9709 45.5767 91.053 45.2508 91.1307 44.9248L83.1083 45.8785L89.1361 46.368L82.0135 46.4756L84.2315 47.0957L89.8411 48.5959L91.3891 49.0152L82.851 47.2888L83.868 47.8793C83.868 47.8793 83.0163 47.7146 82.6868 47.7311L91.2588 53.3415L82.4536 48.3666L88.3018 54.1152L82.3485 49.2061L89.8542 59.3591L89.9714 59.156H90.8811L91.3365 59.9462L90.8811 60.7364H89.9714L89.5159 59.9462L89.8455 59.3744L80.8213 49.3137L84.6431 57.152L80.1108 49.4805L83.7148 60.608L79.4069 49.576L80.4699 58.9288L78.8967 50.6746L78.2398 64.5458L77.606 51.1597L76.4061 56.4123L77.1133 50.3892L73.9921 59.1549H74.2669L74.7223 59.9451L74.2669 60.7353H73.3572L72.9017 59.9451L73.3572 59.1549H73.9275L76.0383 49.9085L71.6307 57.771L75.4405 49.6166L67.6009 59.5467L67.8308 59.9451L67.3764 60.7353H66.6637L63.3127 64.9804L66.3408 60.5169L66.0113 59.9451L66.4667 59.1549H67.2648L73.8137 49.5025L67.683 54.1076L73.956 48.4972L62.6317 54.5729L72.5503 47.8442C72.3981 47.8496 70.1188 48.5948 70.1188 48.5948L64.6767 50.3256L68.1285 48.9021L73.2411 46.7938L61.3738 46.3757L74.1421 46.1156L58.5012 43.711C59.3868 44.1544 60.3393 44.4968 61.3355 44.7185C60.3863 44.747 59.4197 44.6647 58.4628 44.4727C58.753 44.6691 59.065 44.8447 59.3912 45.0016C60.0273 45.31 60.7093 45.5548 61.3913 45.7951C60.6721 45.7216 59.9506 45.647 59.2248 45.4911C59.0759 45.4593 58.927 45.422 58.777 45.3825C59.3901 45.7995 60.0612 46.1518 60.7761 46.424C60.0207 46.3581 59.2609 46.2023 58.5176 45.9565C59.2511 46.3625 60.0601 46.6676 60.9162 46.8443C60.0908 46.908 59.239 46.852 58.3982 46.6731C58.5033 46.7993 58.5931 46.942 58.6741 47.0935H57.8531C57.8005 47.0342 57.7447 46.987 57.6845 46.9541C57.6691 46.9453 57.6527 46.9376 57.6363 46.9288C57.5126 46.8663 57.3068 46.7609 57.1524 46.5414C56.9499 46.255 56.952 45.9455 56.952 45.7798C56.9542 45.3594 56.9378 44.9215 56.9203 44.4584C56.9083 44.128 56.8951 43.7955 56.8897 43.4619L54.837 43.1458L56.8875 43.3038C56.8765 42.4061 56.9203 41.5083 57.1469 40.6589C57.4786 39.4165 57.5202 38.1829 57.5662 36.8769C57.5717 36.7024 57.5783 36.5268 57.5848 36.349C57.6078 35.7476 57.6341 35.144 57.6637 34.5414L56.9729 34.1288L57.6669 34.4778C57.7239 33.2914 57.7917 32.1017 57.8684 30.912C57.3506 30.8945 56.836 30.7617 56.4419 30.5378C55.9383 30.2524 55.542 29.8749 55.1577 29.5105C55.0034 29.3646 54.8589 29.2263 54.71 29.0968C54.5523 28.9607 54.398 28.829 54.2458 28.6995C53.5681 28.1233 52.9167 27.569 52.3595 26.8403C51.7344 27.2618 51.1826 27.6239 50.1524 27.7271L50.055 27.737C49.6357 27.7798 49.1606 27.8281 48.6876 27.8281C47.8315 27.8281 47.1396 27.6645 46.5704 27.3298C46.0274 27.0093 45.6256 26.5385 45.2709 26.1236C44.9151 25.7066 44.5801 25.3137 44.1717 25.1425C43.9725 25.0591 43.7207 25.0097 43.4547 24.9581L43.4503 24.9603ZM94.6942 27.1937L144.737 45.9499C146.427 46.5831 147.563 48.2239 147.563 50.0326V101.178C147.563 102.984 146.479 104.577 144.801 105.237L78.5847 131.245C78.0778 131.444 77.5447 131.545 76.9995 131.545C76.4543 131.545 75.92 131.444 75.4131 131.244L9.19934 105.237C7.52216 104.578 6.43724 102.984 6.43724 101.178V50.0326C6.43724 48.2239 7.57252 46.5831 9.26284 45.9499L53.6032 29.3305C53.624 29.3481 53.6448 29.3656 53.6645 29.3832L53.6776 29.3953C53.8221 29.5182 53.9699 29.6444 54.121 29.775C54.2567 29.8924 54.3936 30.023 54.5392 30.1613C54.9432 30.5455 55.3997 30.979 55.9974 31.3181C56.2733 31.4739 56.5864 31.5958 56.9203 31.6803C56.8907 32.1796 56.8612 32.7009 56.8327 33.2497C56.5678 33.2903 56.3237 33.4494 56.1857 33.7029C55.9558 34.1244 56.0992 34.6523 56.5098 34.8981L56.7451 35.0386C56.7254 35.4611 56.7057 35.8924 56.6893 36.3183C56.6827 36.4796 56.6773 36.6387 56.6718 36.7979L56.6696 36.8484C56.6269 38.1028 56.5853 39.287 56.2799 40.4317C56.1069 41.0814 56.0335 41.7432 56.0051 42.3457L54.8972 42.2601C54.8742 42.2579 54.8512 42.2579 54.8282 42.2579C54.3804 42.2579 53.9973 42.5948 53.9458 43.0481C53.8911 43.5244 54.2217 43.959 54.6946 44.0315L56.0149 44.2345C56.0182 44.3201 56.0215 44.4068 56.0248 44.4957C56.0423 44.9523 56.0587 45.3781 56.0565 45.7787C56.0565 46.0069 56.0511 47.0968 56.0511 47.0968H17.224V48.597H66.8192C66.6178 48.6651 66.4141 48.7232 66.2094 48.7639C66.1886 48.7671 66.1689 48.7704 66.1492 48.7737C66.0901 48.7847 66.0321 48.8023 65.9762 48.8253L64.333 49.5025C63.8918 49.6847 63.6728 50.1829 63.836 50.6318C63.9673 50.9929 64.3078 51.2189 64.6713 51.2189C64.7599 51.2189 64.8508 51.2058 64.9406 51.1772L66.9626 50.5341L62.1259 53.8376C61.7351 54.1043 61.6212 54.6311 61.8654 55.0371C62.0318 55.3126 62.3252 55.4673 62.6273 55.4673C62.7697 55.4673 62.9131 55.4333 63.0466 55.362L67.7859 52.8191L67.0863 53.4447C66.7305 53.7629 66.6878 54.3051 66.99 54.675C67.1651 54.8901 67.4213 55.002 67.6786 55.002C67.8647 55.002 68.0519 54.9438 68.2118 54.8242L70.1232 53.3887L68.319 56.0391H61.9114V63.1915C62.3339 63.456 62.6262 63.7655 62.8288 64.1068L62.5748 64.48C62.3044 64.8773 62.3963 65.4172 62.7828 65.7015C62.9284 65.809 63.097 65.8628 63.2656 65.8716C63.2842 66.2875 63.2722 66.7156 63.2722 67.1447V85.2599C63.2722 86.7657 63.4134 88.2714 61.9114 89.212V96.3644H74.303V89.212C72.801 88.2714 72.9422 86.7657 72.9422 85.2599V74.4375H73.0364L78.7631 96.3644H82.7054L88.1497 74.4375H88.2438V85.2599C88.2438 86.7657 88.385 88.2714 86.883 89.212V96.3644H101.574V89.212C100.072 88.2714 100.213 86.7657 100.213 85.2599V67.1447C100.213 65.6389 100.072 64.1332 101.574 63.1926V56.0402H88.5044L87.368 54.5037L87.7358 54.8067C87.9012 54.9427 88.1015 55.0097 88.3008 55.0097C88.5449 55.0097 88.7879 54.9098 88.9631 54.7134C89.2817 54.3578 89.2642 53.8145 88.9237 53.4809L87.888 52.4624L90.822 54.1196C90.9599 54.1975 91.1099 54.2349 91.2577 54.2349C91.5588 54.2349 91.8522 54.0812 92.0186 53.8057C92.2682 53.3942 92.1467 52.8597 91.7449 52.5963L86.0028 48.8385L91.2128 49.891C91.272 49.9031 91.3311 49.9085 91.3891 49.9085C91.7942 49.9085 92.1576 49.6309 92.254 49.2215C92.3054 49.0031 92.2704 48.7836 92.173 48.5992H136.778V47.099H92.0876C92.2638 46.7971 92.3459 46.5096 92.3952 46.3373C92.4576 46.12 92.5178 45.8939 92.578 45.6536L92.6755 45.6415C93.1429 45.5855 93.4867 45.174 93.4582 44.7031C93.4385 44.3695 93.2371 44.0885 92.9546 43.9524C93.075 43.3433 93.1812 42.7485 93.2787 42.1997C93.2973 42.0944 93.3159 41.9901 93.3345 41.8859L99.0842 39.9532C99.1543 39.9312 99.2211 39.9005 99.2835 39.8632C99.3601 39.8171 99.4269 39.76 99.4849 39.6953C99.6261 39.5372 99.7115 39.3287 99.7115 39.1004C99.7115 38.6526 99.382 38.2806 98.9518 38.218C98.9091 38.2114 98.8653 38.2082 98.8215 38.2082C98.7864 38.2082 98.7503 38.2104 98.7142 38.2147C98.6704 38.2202 98.6277 38.2279 98.5861 38.24L93.8184 39.433C93.9979 38.6592 94.2234 37.8493 94.5256 37.0701C94.599 36.8791 94.6778 36.6892 94.761 36.4884C94.9975 35.9166 95.2635 35.2724 95.4277 34.5689C95.4693 34.4679 95.4912 34.3592 95.4934 34.2506C95.5284 34.0629 95.5525 33.8851 95.5678 33.7117C95.651 32.769 95.4266 31.4322 94.5869 30.4587C94.8661 29.3426 94.8223 28.2078 94.6964 27.197L94.6942 27.1937ZM65.257 92.4419L65.7124 91.6517H66.6221L67.0776 92.4419L66.6221 93.2321H65.7124L65.257 92.4419ZM69.7324 92.4419L70.1878 91.6517H71.0976L71.553 92.4419L71.0976 93.2321H70.1878L69.7324 92.4419ZM81.349 58.829L81.0567 56.2597L82.8817 60.934C83.0185 61.2852 83.3535 61.5014 83.7104 61.5014C83.81 61.5014 83.9107 61.4849 84.0104 61.4487C84.4636 61.2863 84.7055 60.7924 84.5566 60.3336L83.4312 56.859L83.8735 57.6075C84.0388 57.8873 84.3355 58.0454 84.6398 58.0454C84.7822 58.0454 84.9278 58.0113 85.0613 57.9378C85.4817 57.7106 85.6481 57.1915 85.4379 56.7613L84.411 54.6541L86.0598 56.4924L81.9522 72.5531H81.858L79.2415 62.0929L79.4244 58.2243L79.5908 59.0979C79.6718 59.5237 80.044 59.8222 80.4633 59.8222C80.5082 59.8222 80.5531 59.8189 80.598 59.8123C81.0709 59.7399 81.4015 59.3064 81.3479 58.8301L81.349 58.829ZM91.1056 92.4419L91.561 91.6517H92.4707L92.9262 92.4419L92.4707 93.2321H91.561L91.1056 92.4419ZM96.9451 91.6517L97.4005 92.4419L96.9451 93.2321H96.0353L95.5799 92.4419L96.0353 91.6517H96.9451ZM96.402 59.9473L96.8575 59.1571H97.7672L98.2226 59.9473L97.7672 60.7375H96.8575L96.402 59.9473ZM152.501 101.179C152.501 105.038 150.186 108.441 146.602 109.848L80.3867 135.857C78.2015 136.715 75.7952 136.715 73.6101 135.857L7.39626 109.847C3.81198 108.439 1.49655 105.037 1.49655 101.178V50.0315C1.49655 46.1683 3.92146 42.6629 7.53201 41.3097L45.0662 27.2409C45.3552 27.546 45.6967 27.8533 46.1138 28.0991C46.4368 28.289 46.7882 28.4328 47.1692 28.5348L8.21405 43.1381C5.36108 44.2082 3.44305 46.9782 3.44305 50.0326V101.178C3.44305 104.228 5.2735 106.918 8.10676 108.031L74.3217 134.039C75.1789 134.376 76.0798 134.546 77.0005 134.546C77.9212 134.546 78.8223 134.376 79.6784 134.039L145.893 108.031C148.727 106.918 150.557 104.228 150.557 101.178V50.0326C150.557 46.9782 148.64 44.2082 145.786 43.1381L94.045 23.7454C93.8797 23.1505 93.664 22.5524 93.3575 21.974C93.2261 21.726 93.0783 21.4823 92.9119 21.2387L146.467 41.3119C150.076 42.6651 152.502 46.1694 152.502 50.0337V101.18L152.501 101.179Z" fill="white"/>
<path d="M77.9771 20.6779C78.0559 20.8644 78.1457 21.0477 78.2453 21.2244C78.3373 21.3846 78.4369 21.5394 78.5453 21.6897L78.4402 20.7744C78.3022 20.7448 78.1654 20.7152 78.0274 20.6888L77.976 20.679L77.9771 20.6779Z" fill="white"/>
<path d="M136.775 103.804H17.224V105.305H136.775V103.804Z" fill="white"/>
<path d="M83.2101 19.294L85.0394 20.0107L90.5286 17.403L88.6697 16.6293L83.2101 19.294Z" fill="white"/>
<path d="M82.2138 18.8736L82.8094 19.0931L88.2449 16.4416L88.1168 16.3911L87.6165 16.2363L82.2138 18.8736Z" fill="white"/>
</g>
<defs>
<clipPath id="clip0_2_3">
<rect width="154" height="138" fill="white"/>
</clipPath>
</defs>
</svg>
