<svg width="334" height="408" viewBox="0 0 334 408" fill="none" xmlns="http://www.w3.org/2000/svg">
<g opacity="0.15" clip-path="url(#clip0_46_33)">
<path d="M202.88 168.98C202.73 168.71 202.91 168.98 202.73 168.71C202.21 168.03 201.66 167.46 201.11 167H201.1C199.82 165.86 198.47 165.18 197.06 164.85H197.05C192.49 163.78 187.38 166.29 183 168.74C177.74 171.68 172.65 181.45 165.64 172.78C164.97 171.95 164.2 171.1 163.31 170.24C163.29 170.22 163.28 170.21 163.26 170.19C161.6 168.52 159.63 166.9 157.51 165.56C157.5 165.56 157.5 165.56 157.49 165.56C152.13 162.13 145.95 160.54 142 165.16C137.65 170.28 142.76 177.44 145.67 184.76C146.47 186.75 147.11 188.71 147.33 190.67V190.71C147.42 191.2 147.45 191.71 147.45 192.2C147.45 193.74 147.17 195.27 146.53 196.71C145.6 198.74 143.96 200.69 141.26 202.5C134.1 207.3 130.24 214.07 130.36 219.58V219.62C130.39 221.27 130.79 222.79 131.57 224.11C131.58 224.11 131.58 224.11 131.58 224.11C133.02 226.62 135.78 228.42 140.01 228.95C143.73 229.41 147.16 228.49 150.58 227.24C150.58 227.24 150.587 227.237 150.6 227.23C152.16 226.68 153.7 226.04 155.29 225.45C156.39 225.06 157.37 224.69 158.26 224.38H158.29C166.64 221.5 167.11 223 173.21 230.54C173.21 230.54 173.21 230.55 173.22 230.55C173.22 230.55 173.223 230.557 173.23 230.57L173.26 230.6C174.85 232.55 176.89 234.38 179.2 235.6C179.21 235.6 179.23 235.6 179.24 235.62C181.47 236.79 183.95 237.37 186.49 236.88C191.21 235.96 193.66 231.46 193.91 226.99C194.24 221.2 191.76 216.76 189.68 211.8C189.07 210.35 188.49 208.86 188.03 207.26C187.84 206.68 187.72 206.13 187.6 205.64C185.85 197.8 190.69 198.29 195.68 191.34V191.31C195.77 191.22 195.87 191.09 195.93 191C197.37 188.92 199.33 186.33 200.97 183.51H200.98C203.77 178.75 205.7 173.39 202.88 168.98Z" fill="white"/>
<path d="M114.77 288.78C133.93 257.77 155.17 228.13 177.01 198.96C198.34 170.46 220.16 142.31 240.75 113.26C252.8 96.2599 264.41 78.9499 275.36 61.2299C276.91 58.7199 272.96 56.4299 271.42 58.9199C252.26 89.9299 231.02 119.57 209.18 148.74C187.85 177.24 166.03 205.39 145.44 234.44C133.39 251.44 121.78 268.75 110.83 286.47C109.28 288.98 113.23 291.27 114.77 288.78Z" fill="white"/>
<path d="M75.26 351.4C77.76 347.01 80.26 342.61 82.75 338.22C83.34 337.18 83.03 335.68 81.93 335.1C80.85 334.53 79.44 334.81 78.81 335.92C76.31 340.31 73.81 344.71 71.32 349.1C70.73 350.14 71.04 351.64 72.14 352.22C73.22 352.79 74.63 352.51 75.26 351.4Z" fill="white"/>
<path d="M141.11 91.44C148.67 126.81 156.49 162.12 164.97 197.28C172.33 227.76 180.21 258.11 188.27 288.41C193.81 309.24 199.4 330.04 204.99 350.86C205.75 353.7 210.16 352.49 209.39 349.65C200.13 315.13 190.79 280.63 181.86 246.02C174 215.54 166.56 184.96 159.58 154.27C154.73 132.96 150.07 111.61 145.51 90.23C144.9 87.36 140.49 88.57 141.11 91.44Z" fill="white"/>
<path d="M214.61 391.43C215.71 396.11 216.81 400.79 217.91 405.47C218.18 406.63 219.58 407.43 220.72 407.06C221.93 406.67 222.61 405.5 222.31 404.25C221.21 399.57 220.11 394.89 219.01 390.21C218.74 389.05 217.34 388.25 216.2 388.62C214.99 389.01 214.31 390.18 214.61 391.43Z" fill="white"/>
<path d="M127.22 20.44C127.84 23.79 128.46 27.14 129.07 30.49C129.29 31.67 130.78 32.44 131.88 32.09C133.14 31.68 133.71 30.54 133.48 29.28C132.86 25.93 132.24 22.58 131.63 19.23C131.41 18.05 129.92 17.28 128.82 17.64C127.56 18.05 126.99 19.19 127.23 20.45L127.22 20.44Z" fill="white"/>
<path d="M40.12 138.48C72.98 154.19 105.74 170.11 138.4 186.24C167.96 200.84 197.41 215.68 226.88 230.46C238.73 236.4 250.51 242.47 262.27 248.58C264.88 249.93 267.19 245.99 264.58 244.64C242.08 232.96 219.4 221.62 196.75 210.22C163.86 193.68 130.87 177.35 97.77 161.23C79.36 152.26 60.91 143.36 42.44 134.53C39.8 133.27 37.48 137.2 40.13 138.47L40.12 138.48Z" fill="white"/>
<path d="M315.97 273.66C320.65 276.13 325.33 278.61 330.02 281.08C331.08 281.64 332.55 281.38 333.14 280.26C333.7 279.2 333.45 277.73 332.32 277.14C327.64 274.67 322.96 272.19 318.27 269.72C317.21 269.16 315.74 269.42 315.15 270.54C314.59 271.6 314.84 273.07 315.97 273.66Z" fill="white"/>
<path d="M1.1 118C4.02 119.33 6.94 120.66 9.85 121.98C10.42 122.24 10.98 122.38 11.61 122.21C12.14 122.06 12.71 121.65 12.97 121.16C13.5 120.16 13.31 118.56 12.15 118.04C9.22999 116.71 6.31 115.38 3.4 114.06C2.83 113.8 2.27 113.66 1.64 113.83C1.11 113.98 0.539996 114.39 0.279996 114.88C-0.250004 115.88 -0.0600042 117.48 1.1 118Z" fill="white"/>
<path d="M83.65 248.59C91.31 244.67 98.97 240.76 106.64 236.84C118.86 230.59 131.09 224.35 143.31 218.1C157.3 210.95 171.29 203.8 185.28 196.65C198.01 190.14 210.74 183.64 223.47 177.13C232.15 172.69 240.83 168.26 249.5 163.82C250.14 163.49 250.79 163.16 251.43 162.83C254.05 161.49 251.74 157.55 249.12 158.89C241.15 162.96 233.19 167.03 225.22 171.1C212.84 177.43 200.46 183.75 188.08 190.08C174.08 197.23 160.08 204.39 146.08 211.54C133.49 217.98 120.9 224.41 108.3 230.85C99.91 235.14 91.51 239.43 83.12 243.72C82.52 244.03 81.92 244.33 81.32 244.64C78.7 245.98 81.01 249.92 83.63 248.58L83.65 248.59Z" fill="white"/>
<path d="M278.62 149.68C283.88 147.33 289.13 144.97 294.39 142.62C295.52 142.12 295.78 140.48 295.21 139.5C294.53 138.34 293.22 138.17 292.09 138.68C286.83 141.03 281.58 143.39 276.32 145.74C275.19 146.24 274.93 147.88 275.5 148.86C276.18 150.02 277.49 150.19 278.62 149.68Z" fill="white"/>
<path d="M44.14 264.32C47.2 262.98 50.26 261.64 53.32 260.3C53.81 260.09 54.23 259.43 54.37 258.94C54.52 258.39 54.45 257.67 54.14 257.18C53.83 256.69 53.36 256.26 52.78 256.13C52.14 255.98 51.61 256.1 51.02 256.36C47.96 257.7 44.9 259.04 41.84 260.38C41.35 260.59 40.93 261.25 40.79 261.74C40.64 262.29 40.71 263.01 41.02 263.5C41.33 263.99 41.8 264.42 42.38 264.55C43.02 264.7 43.55 264.58 44.14 264.32Z" fill="white"/>
<path d="M302.95 12.5C304.88 9.47001 306.8 6.44001 308.73 3.42001C309.37 2.41001 308.97 0.860011 307.91 0.300011C306.78 -0.299989 305.47 0.0400114 304.79 1.12001C302.86 4.15001 300.94 7.18001 299.01 10.2C298.37 11.21 298.77 12.76 299.83 13.32C300.96 13.92 302.27 13.58 302.95 12.5Z" fill="white"/>
</g>
<defs>
<clipPath id="clip0_46_33">
<rect width="333.43" height="407.16" fill="white"/>
</clipPath>
</defs>
</svg>
