<?xml version="1.0" standalone="no"?>
<!DOCTYPE svg PUBLIC "-//W3C//DTD SVG 20010904//EN"
 "http://www.w3.org/TR/2001/REC-SVG-20010904/DTD/svg10.dtd">
<svg version="1.0" xmlns="http://www.w3.org/2000/svg"
 width="260.000000pt" height="260.000000pt" viewBox="0 0 260.000000 260.000000"
 preserveAspectRatio="xMidYMid meet">
<metadata>
Created by potrace 1.14, written by Peter Selinger 2001-2017
</metadata>
<g transform="translate(0.000000,260.000000) scale(0.100000,-0.100000)"
fill="#000000" stroke="none">
<path d="M1274 2393 c-26 -27 -57 -65 -71 -85 -21 -31 -32 -38 -62 -40 -20 0
-81 -3 -136 -4 -214 -8 -258 -17 -308 -67 -39 -39 -40 -40 -34 -100 5 -61 26
-94 51 -80 7 4 8 2 1 -5 -8 -9 -181 -75 -579 -223 -27 -10 -63 -31 -79 -46
-57 -55 -57 -55 -57 -543 0 -246 3 -462 6 -480 14 -69 62 -100 284 -188 113
-44 304 -120 425 -167 606 -239 540 -223 675 -170 52 20 145 56 205 80 61 24
279 109 485 190 206 81 386 157 399 168 13 12 32 40 42 62 17 37 19 74 19 490
0 266 -4 464 -10 484 -22 79 -37 86 -531 271 l-458 172 19 27 c20 26 50 128
50 166 0 24 -18 45 -37 45 -7 0 -42 13 -77 30 -105 48 -137 60 -158 60 -10 0
-39 -21 -64 -47z m196 -17 c108 -46 136 -63 124 -76 -3 -2 -10 3 -15 11 -5 9
-20 20 -34 23 -14 4 -51 18 -81 32 -31 14 -62 23 -70 20 -8 -3 -12 -2 -9 4 7
12 -26 29 -45 22 -25 -8 -50 -34 -43 -45 4 -6 1 -7 -7 -2 -10 6 -12 4 -7 -8 4
-10 2 -14 -6 -11 -15 5 -57 -55 -57 -82 0 -16 -2 -17 -10 -4 -8 13 -10 12 -10
-2 0 -10 6 -18 13 -18 9 0 9 -2 -1 -8 -7 -5 -10 -17 -6 -28 5 -16 4 -16 -5 -4
-8 11 -11 0 -11 -46 0 -80 9 -124 26 -124 8 0 14 -9 14 -20 0 -23 28 -40 64
-40 34 0 163 83 163 104 0 9 -7 16 -16 15 -32 -3 -40 1 -35 16 4 8 12 15 19
15 7 0 28 11 48 24 40 27 45 12 9 -27 -12 -13 -19 -26 -16 -30 10 -10 65 53
57 66 -3 5 -1 7 5 3 6 -3 13 -2 17 3 3 6 -8 17 -25 26 -41 21 -38 27 5 9 19
-8 35 -11 35 -7 2 25 29 104 29 86 1 -33 -35 -122 -59 -148 -21 -22 -21 -24
-5 -55 9 -18 15 -43 12 -56 -2 -13 0 -24 5 -24 5 0 8 -12 7 -27 -1 -16 2 -41
6 -57 5 -20 2 -44 -9 -77 -10 -27 -15 -53 -12 -58 4 -5 2 -12 -3 -15 -4 -3
-11 -23 -15 -45 -3 -22 -10 -42 -15 -45 -5 -3 -4 12 1 34 6 23 8 43 5 46 -7 8
-107 -25 -107 -35 0 -4 14 -8 32 -9 49 -4 47 -12 -3 -12 -32 0 -40 -3 -29 -10
13 -8 12 -10 -2 -10 -10 0 -18 -3 -19 -7 0 -5 -2 -16 -4 -26 -2 -13 1 -16 14
-12 11 3 24 -2 32 -12 11 -15 11 -16 -1 -5 -17 14 -34 16 -25 2 4 -6 -1 -7
-12 -3 -12 5 -8 -5 14 -32 46 -56 33 -55 -22 2 -32 34 -41 39 -28 19 l18 -29
-27 17 c-23 15 -26 15 -32 1 -3 -9 -6 -40 -6 -67 0 -58 -13 -58 -14 -1 -1 27
-5 37 -15 35 -12 -3 -12 0 -1 12 9 11 9 16 1 16 -6 0 -14 -8 -17 -17 -14 -46
-23 -57 -17 -23 3 19 9 42 14 51 5 11 3 16 -6 16 -8 0 -12 -4 -9 -9 3 -4 -1
-8 -8 -8 -7 0 -40 -37 -73 -81 -32 -45 -61 -76 -63 -69 -2 6 3 17 11 23 24 20
108 147 96 147 -5 0 -7 5 -4 11 4 5 -19 -4 -52 -21 -32 -17 -47 -23 -34 -13
14 10 34 26 45 36 21 18 21 18 -4 12 -22 -5 -23 -4 -7 5 10 7 25 9 33 6 8 -3
13 -2 9 3 -3 5 1 12 7 14 7 3 0 6 -17 7 -29 2 -29 2 -5 9 20 6 11 9 -40 15
-36 5 -87 10 -115 11 -45 3 -48 2 -31 -11 18 -13 18 -14 -5 -23 -13 -5 -28 -6
-32 -4 -5 3 -5 63 -1 134 4 82 3 129 -3 129 -5 0 -23 13 -39 30 -26 27 -34 29
-75 24 -39 -5 -49 -2 -76 20 -17 14 -38 26 -46 26 -9 0 -18 9 -21 20 -3 11 -9
29 -12 40 -3 11 -1 20 5 20 5 0 11 -14 13 -32 2 -25 9 -34 33 -41 17 -6 36
-18 43 -29 8 -11 25 -18 44 -18 l31 0 -27 26 c-14 15 -26 35 -26 45 0 9 -3 24
-6 33 -3 9 -1 16 5 16 6 0 10 -3 10 -7 -4 -26 4 -54 21 -74 16 -20 21 -21 29
-10 5 8 7 21 4 30 -4 14 -3 14 6 1 6 -8 11 -22 11 -31 0 -10 15 -30 34 -47 31
-27 40 -29 93 -27 32 2 69 3 81 4 22 1 23 4 17 40 -6 34 -4 40 14 46 27 8 27
21 -1 36 -12 6 -31 21 -42 32 -12 10 -34 28 -51 39 -27 17 -27 19 -5 12 13 -3
40 -22 60 -40 19 -19 43 -37 53 -40 9 -3 17 -12 17 -20 0 -8 10 -14 23 -14 21
0 22 3 22 100 0 80 -3 100 -14 100 -14 0 -10 10 6 13 4 1 19 18 33 39 38 57
117 137 132 134 7 -1 65 -24 128 -50z m-368 -126 c21 4 41 3 44 -1 3 -5 -13
-9 -35 -9 -32 0 -41 -4 -41 -17 -1 -16 -2 -16 -10 -2 -11 20 -71 23 -183 9
-45 -5 -89 -11 -98 -13 -28 -5 -69 -37 -89 -70 -23 -38 -27 -29 -5 13 24 47
72 69 175 79 51 6 94 12 96 14 2 2 27 0 55 -3 29 -4 69 -4 91 0z m343 -28 c-3
-3 -11 0 -18 7 -9 10 -8 11 6 5 10 -3 15 -9 12 -12z m-550 -12 c3 -5 16 -10
29 -10 13 0 31 -9 41 -20 10 -11 13 -20 8 -20 -6 0 -13 7 -17 15 -3 8 -16 15
-30 15 -14 0 -28 5 -31 11 -5 7 -15 4 -32 -6 -14 -10 -22 -12 -19 -6 4 6 3 11
-3 11 -14 0 -41 -41 -42 -65 0 -11 -3 -14 -6 -7 -8 20 16 68 40 80 28 14 54
15 62 2z m465 6 c0 -2 -8 -10 -17 -17 -16 -13 -17 -12 -4 4 13 16 21 21 21 13z
m46 -15 c-3 -5 8 -14 24 -20 17 -5 30 -12 30 -15 0 -3 -7 -2 -17 1 -12 5 -14
3 -8 -7 5 -8 4 -11 -3 -7 -13 9 -44 -2 -37 -13 3 -4 -2 -11 -11 -14 -8 -3 -13
-2 -10 3 4 5 -3 7 -15 4 -16 -4 -17 -8 -7 -14 9 -6 9 -9 1 -9 -26 0 -21 19 15
58 36 40 49 51 38 33z m-589 -83 c-3 -8 -6 -5 -6 6 -1 11 2 17 5 13 3 -3 4
-12 1 -19z m199 -45 c-2 -2 -13 1 -24 8 -16 10 -23 10 -36 0 -9 -7 -14 -17
-11 -21 3 -5 -1 -10 -7 -13 -7 -2 -10 -7 -7 -11 10 -10 40 5 32 17 -4 6 -1 7
7 2 10 -6 9 -11 -6 -22 -41 -30 -55 3 -19 46 25 29 27 30 51 14 14 -8 23 -18
20 -20z m289 28 c3 -5 2 -12 -3 -15 -5 -3 -9 1 -9 9 0 17 3 19 12 6z m85 5 c0
-3 -4 -8 -10 -11 -5 -3 -10 -1 -10 4 0 6 5 11 10 11 6 0 10 -2 10 -4z m-399
-43 c13 -16 12 -17 -3 -4 -10 7 -18 15 -18 17 0 8 8 3 21 -13z m805 -74 c132
-50 250 -95 264 -99 82 -26 360 -135 385 -150 17 -10 39 -34 50 -52 18 -31 19
-54 19 -499 l0 -465 -30 -42 c-24 -35 -42 -47 -109 -73 -235 -92 -564 -222
-592 -235 -17 -8 -33 -14 -36 -14 -3 0 -103 -38 -223 -85 -119 -47 -231 -86
-248 -87 -17 0 -51 6 -76 15 -46 16 -618 240 -655 256 -11 5 -114 46 -230 92
-116 45 -218 87 -228 93 -10 6 -28 27 -40 46 -21 34 -21 41 -22 489 0 298 4
466 11 486 21 62 48 76 383 202 251 95 328 120 338 111 11 -9 -58 -39 -313
-134 -337 -127 -367 -142 -382 -199 -6 -24 -9 -776 -3 -897 2 -39 43 -82 98
-103 26 -10 176 -69 333 -131 786 -310 789 -311 838 -284 9 5 260 104 557 220
581 227 594 233 596 303 5 155 3 868 -3 891 -12 47 -44 72 -136 106 -48 18
-100 39 -117 45 -16 7 -172 66 -345 130 -173 65 -321 122 -327 127 -15 12 -17
28 -4 28 5 0 116 -41 247 -91z m-76 -59 c120 -38 679 -256 694 -270 19 -18 19
-38 19 -469 0 -324 -3 -454 -11 -464 -15 -18 -27 -23 -407 -172 -176 -69 -411
-162 -521 -205 -111 -44 -212 -80 -225 -80 -13 0 -274 99 -579 219 -402 159
-559 225 -569 241 -12 18 -14 96 -14 467 0 423 1 445 19 463 18 17 732 290
758 290 7 0 23 -11 36 -25 18 -19 21 -27 11 -39 -7 -8 -8 -17 -3 -20 20 -12
-1 -126 -23 -126 -21 0 -19 -12 6 -33 45 -39 27 -42 -304 -43 -175 0 -320 -4
-324 -7 -3 -4 -3 -10 0 -14 4 -3 186 -6 404 -6 325 0 393 -2 379 -13 -20 -14
-12 -38 10 -30 25 10 15 -2 -21 -23 -19 -11 -35 -27 -35 -36 0 -19 3 -19 50 5
22 11 40 17 39 13 -3 -20 3 -23 24 -12 22 12 22 12 4 -9 -14 -16 -29 -20 -57
-18 -59 5 -64 -2 -58 -83 3 -39 9 -76 14 -83 14 -19 9 -357 -5 -371 -6 -6 -11
-38 -11 -72 l0 -60 92 2 c51 1 98 2 104 2 14 1 12 110 -2 132 -8 13 -17 225
-9 217 3 -2 11 -31 19 -63 69 -280 75 -296 119 -288 21 4 27 20 61 161 21 86
42 163 46 170 3 7 6 -32 5 -87 -1 -62 -6 -105 -14 -115 -7 -9 -11 -37 -9 -72
l3 -58 95 1 c52 1 107 2 121 2 25 1 26 3 25 59 -1 31 -5 60 -11 64 -15 11 -18
370 -3 405 15 35 17 133 3 134 -5 0 -54 2 -107 2 -53 1 -100 5 -104 10 -4 4
-2 7 4 7 7 0 12 7 12 15 0 12 4 14 19 5 14 -7 22 -7 27 1 7 12 3 17 -51 53
l-40 27 34 -6 c19 -3 38 -8 43 -11 4 -3 11 1 14 9 4 12 63 14 347 15 416 0
397 0 397 12 0 6 -130 10 -370 10 -343 0 -395 4 -360 25 6 4 10 14 9 23 -3 35
2 41 51 57 27 9 52 20 55 25 10 16 -15 21 -52 11 -20 -6 -38 -9 -40 -7 -2 1 3
21 11 44 15 41 15 46 1 94 -14 54 -3 60 67 32 35 -14 74 -29 88 -34z m-403
-372 c-3 -8 -6 -5 -6 6 -1 11 2 17 5 13 3 -3 4 -12 1 -19z m97 -82 c-9 -35
-21 -41 -26 -12 -4 18 -1 23 10 18 12 -4 14 0 9 18 -4 15 -3 20 4 13 6 -6 7
-22 3 -37z m37 27 c13 -16 12 -17 -3 -4 -10 7 -18 15 -18 17 0 8 8 3 21 -13z
m-72 -71 c17 -7 17 -11 -4 -97 l-22 -90 -12 45 c-6 25 -15 54 -19 65 -15 37
-15 106 -1 103 8 -2 15 8 18 22 4 24 4 23 13 -8 5 -18 17 -36 27 -40z m-149
18 c0 -5 -4 -10 -9 -10 -6 0 -13 5 -16 10 -3 6 1 10 9 10 9 0 16 -4 16 -10z
m68 -15 c-3 -3 -9 2 -12 12 -6 14 -5 15 5 6 7 -7 10 -15 7 -18z m202 15 c0 -5
-4 -10 -10 -10 -5 0 -10 5 -10 10 0 6 5 10 10 10 6 0 10 -4 10 -10z m120 0 c0
-5 -4 -10 -9 -10 -6 0 -13 5 -16 10 -3 6 1 10 9 10 9 0 16 -4 16 -10z m-524
-547 c-10 -10 -19 5 -10 18 6 11 8 11 12 0 2 -7 1 -15 -2 -18z m81 1 c-9 -9
-28 6 -21 18 4 6 10 6 17 -1 6 -6 8 -13 4 -17z m419 -1 c-10 -10 -19 5 -10 18
6 11 8 11 12 0 2 -7 1 -15 -2 -18z m-66 7 c0 -5 -4 -10 -9 -10 -6 0 -13 5 -16
10 -3 6 1 10 9 10 9 0 16 -4 16 -10z"/>
<path d="M1499 2070 c0 -17 -3 -20 -7 -10 -4 8 -13 16 -20 18 -8 1 -11 -1 -8
-6 8 -13 -6 -27 -74 -71 -64 -42 -92 -47 -149 -30 -8 2 -20 -7 -28 -21 -8 -17
-13 -20 -13 -9 0 9 -10 19 -22 23 -38 10 -51 7 -44 -10 3 -8 2 -13 -2 -10 -10
6 -94 -12 -102 -22 -9 -12 -52 -34 -45 -23 3 6 1 11 -5 11 -7 0 -9 -7 -6 -16
4 -9 1 -23 -5 -30 -9 -11 -9 -14 0 -14 7 0 9 -4 6 -10 -3 -5 -2 -10 3 -10 10
0 10 -40 -1 -57 -4 -6 0 -19 9 -27 14 -15 13 -16 -7 -16 -12 0 -20 -3 -17 -6
11 -10 216 -16 222 -5 3 5 -34 33 -84 61 -49 29 -90 54 -90 56 0 2 36 -14 80
-36 44 -22 80 -35 80 -30 0 6 5 8 10 5 20 -12 9 6 -27 47 -34 38 -12 28 27
-13 8 -8 23 -18 33 -22 16 -6 16 -4 1 31 -27 63 -27 69 1 22 33 -55 40 -62 30
-30 -15 49 -15 54 0 21 9 -18 14 -40 11 -47 -3 -8 -1 -14 4 -14 10 0 14 30 12
79 -2 33 8 19 15 -21 9 -58 18 -52 53 35 29 74 35 69 9 -7 -21 -66 -23 -80 -8
-53 6 9 15 15 20 11 6 -3 17 2 26 12 12 16 12 14 -1 -8 -19 -32 -20 -42 -4
-32 7 4 8 3 4 -4 -4 -6 -14 -9 -24 -6 -16 5 -16 5 0 -6 14 -8 26 -6 57 10 46
23 70 27 28 4 -16 -9 -25 -20 -21 -26 5 -7 2 -9 -8 -6 -8 4 -21 2 -29 -3 -9
-6 0 -7 26 -4 67 8 95 16 89 26 -3 5 0 9 6 9 7 0 10 6 7 13 -2 6 3 21 12 31
12 14 13 20 4 23 -9 3 -10 10 -3 24 10 18 6 24 -14 20 -5 -1 -4 5 4 13 7 9 9
16 4 16 -4 0 -3 5 4 12 19 19 14 32 -5 17 -16 -12 -17 -12 -7 1 14 17 15 100
2 100 -5 0 -7 4 -4 8 2 4 1 14 -5 22 -7 12 -9 9 -10 -10z m-192 -262 c-3 -7
-5 -2 -5 12 0 14 2 19 5 13 2 -7 2 -19 0 -25z m-142 -26 c-3 -3 -11 0 -18 7
-9 10 -8 11 6 5 10 -3 15 -9 12 -12z m2 -58 c-3 -3 -12 -4 -19 -1 -8 3 -5 6 6
6 11 1 17 -2 13 -5z"/>
<path d="M1113 2023 c-18 -7 -16 -30 3 -37 21 -8 34 1 34 25 0 18 -12 23 -37
12z"/>
<path d="M1162 2003 c2 -22 9 -28 31 -30 22 -1 27 2 27 21 0 16 -7 26 -22 30
-36 9 -40 8 -36 -21z"/>
<path d="M1895 1523 c-113 -25 -165 -85 -165 -190 0 -130 38 -170 198 -216 63
-18 79 -27 90 -49 17 -37 6 -77 -25 -84 -38 -10 -44 2 -52 91 -1 6 -40 10 -98
10 l-98 -1 -3 -92 -3 -91 49 -25 c61 -31 130 -44 221 -40 157 6 233 86 225
236 -6 110 -39 147 -169 187 -92 29 -113 40 -121 63 -9 30 5 58 30 58 30 0 46
-18 46 -52 l0 -28 98 0 97 0 0 73 c0 88 -7 99 -83 127 -54 20 -189 34 -237 23z
m205 -161 c0 -13 -12 -22 -22 -16 -10 6 -1 24 13 24 5 0 9 -4 9 -8z m70 -8 c0
-8 -4 -12 -10 -9 -5 3 -10 10 -10 16 0 5 5 9 10 9 6 0 10 -7 10 -16z m-360
-330 c0 -8 -4 -12 -10 -9 -5 3 -10 10 -10 16 0 5 5 9 10 9 6 0 10 -7 10 -16z
m77 -10 c-9 -9 -28 6 -21 18 4 6 10 6 17 -1 6 -6 8 -13 4 -17z"/>
<path d="M322 1510 c-17 -4 -19 -13 -18 -60 1 -30 6 -62 11 -70 13 -20 15
-358 2 -390 -13 -33 -18 -122 -7 -135 7 -9 51 -10 173 -6 26 1 27 3 27 59 0
32 -5 63 -11 69 -11 11 -18 145 -9 184 5 22 19 -19 45 -131 11 -48 44 -172 47
-175 2 -2 17 -5 33 -7 l30 -3 41 160 c22 88 43 167 46 175 3 8 6 -32 6 -90 0
-65 -4 -107 -10 -111 -6 -4 -12 -33 -13 -64 -1 -46 2 -58 16 -64 15 -5 129 -6
212 -2 14 1 17 11 17 59 0 32 -5 63 -11 69 -16 16 -16 381 0 410 12 24 15 122
4 124 -5 0 -61 2 -127 3 -137 2 -118 19 -161 -153 -32 -128 -30 -129 -70 38
-15 61 -30 111 -33 112 -25 4 -225 3 -240 -1z m73 -60 c3 -5 -1 -10 -9 -10 -9
0 -16 5 -16 10 0 6 4 10 9 10 6 0 13 -4 16 -10z m115 0 c0 -5 -4 -10 -9 -10
-6 0 -13 5 -16 10 -3 6 1 10 9 10 9 0 16 -4 16 -10z m270 0 c0 -5 -4 -10 -10
-10 -5 0 -10 5 -10 10 0 6 5 10 10 10 6 0 10 -4 10 -10z m115 0 c3 -5 -1 -10
-9 -10 -9 0 -16 5 -16 10 0 6 4 10 9 10 6 0 13 -4 16 -10z m-515 -541 c0 -5
-4 -9 -10 -9 -5 0 -10 7 -10 16 0 8 5 12 10 9 6 -3 10 -10 10 -16z m71 -2
c-13 -13 -26 -3 -16 12 3 6 11 8 17 5 6 -4 6 -10 -1 -17z m356 -3 c-9 -9 -28
6 -21 18 4 6 10 6 17 -1 6 -6 8 -13 4 -17z m69 -1 c-10 -10 -19 5 -10 18 6 11
8 11 12 0 2 -7 1 -15 -2 -18z"/>
<path d="M284 721 c-2 -2 -4 -8 -4 -13 0 -4 445 -8 990 -8 799 0 988 2 984 13
-3 10 -198 13 -985 12 -539 0 -982 -2 -985 -4z"/>
</g>
</svg>
